<svg>

    <symbol id="hero-deco" xmlns="http://www.w3.org/2000/svg">
        <rect x="92.4355" y="314.033" width="127.863" height="123.867" transform="rotate(42.3449 92.4355 314.033)" stroke="#121B25" stroke-width="12"/>
        <rect x="92.4355" y="212.355" width="127.863" height="123.867" transform="rotate(42.3449 92.4355 212.355)" stroke="#121B25" stroke-width="12"/>
        <rect x="92.4355" y="110.678" width="127.863" height="123.867" transform="rotate(42.3449 92.4355 110.678)" stroke="#121B25" stroke-width="12"/>
        <rect x="92.4355" y="9" width="127.863" height="123.867" transform="rotate(42.3449 92.4355 9)" stroke="#121B25" stroke-width="12"/>
    </symbol>

    <symbol id="reviews-deco" fill="none" xmlns="http://www.w3.org/2000/svg">
        <path opacity="0.47" d="M-200.716 3L308.507 576.302L-187.777 1134.52L-727 561.221L-200.716 3Z" stroke-width="4"/>
        <path opacity="0.58" d="M-281.716 3L227.507 576.302L-268.777 1134.52L-808 561.221L-281.716 3Z" stroke-width="4"/>
        <path opacity="0.9" d="M-358.716 3L150.507 576.302L-345.777 1134.52L-885 561.221L-358.716 3Z" stroke-width="4"/>
    </symbol>

    <symbol id="simply-wave-deco" fill="none" xmlns="http://www.w3.org/2000/svg">
        <path opacity="0.58" d="M-104 48C-3.02255 72.5207 219.946 210.45 304 566" stroke-width="3" />
        <path opacity="0.47" d="M-58 2C42.9774 26.5207 265.946 164.45 350 520" stroke-width="3" />
        <path opacity="0.9" d="M-148 98C-47.0226 122.521 189.5 282 251.5 616" stroke-width="3" />
    </symbol>

    <symbol id="simply-rect-deco" xmlns="http://www.w3.org/2000/svg">
        <rect x="3.5" y="3.5" width="83" height="95" stroke="#121B25" stroke-width="7" />
        <rect x="25.5" y="43.5" width="83" height="95" stroke="#121B25" stroke-width="7" />
        <rect x="47.5" y="83.5" width="83" height="95" stroke="#121B25" stroke-width="7" />
    </symbol>

    <symbol id="bed" xmlns="http://www.w3.org/2000/svg">
        <path d="M4.125 4.125C2.99406 4.125 2.0625 5.05656 2.0625 6.1875V10.8494C1.64312 11.2283 1.375 11.7707 1.375 12.375V18.5625H4.8125V17.1875H17.1875V18.5625H20.625V12.375C20.625 11.7707 20.3569 11.2283 19.9375 10.8494V6.1875C19.9375 5.05656 19.0059 4.125 17.875 4.125H4.125ZM4.125 5.5H17.875C18.2566 5.5 18.5625 5.80594 18.5625 6.1875V10.3125H17.1875V9.625C17.1875 8.49406 16.2559 7.5625 15.125 7.5625H12.375C11.8484 7.5625 11.3651 7.76875 11 8.09944C10.6242 7.75605 10.1341 7.56468 9.625 7.5625H6.875C5.74406 7.5625 4.8125 8.49406 4.8125 9.625V10.3125H3.4375V6.1875C3.4375 5.80594 3.74344 5.5 4.125 5.5ZM6.875 8.9375H9.625C10.0066 8.9375 10.3125 9.24344 10.3125 9.625V10.3125H6.1875V9.625C6.1875 9.24344 6.49344 8.9375 6.875 8.9375ZM12.375 8.9375H15.125C15.5066 8.9375 15.8125 9.24344 15.8125 9.625V10.3125H11.6875V9.625C11.6875 9.24344 11.9934 8.9375 12.375 8.9375ZM3.4375 11.6875H18.5625C18.9441 11.6875 19.25 11.9934 19.25 12.375V17.1875H18.5625V15.8125H3.4375V17.1875H2.75V12.375C2.75 11.9934 3.05594 11.6875 3.4375 11.6875Z"/>
    </symbol>

    <symbol id="bath" xmlns="http://www.w3.org/2000/svg">
        <path d="M17.875 2.75C16.3556 2.75 15.125 3.98062 15.125 5.5H13.75V6.875H17.875V5.5H16.5C16.5 4.68119 17.0562 4.125 17.875 4.125C18.6938 4.125 19.25 4.68119 19.25 5.5V9.625H0.6875V11H1.50425L2.55612 16.2209V16.2422C2.63597 16.5927 2.80427 16.917 3.04496 17.184C3.28566 17.4511 3.59074 17.652 3.93112 17.7677L3.4375 19.25H4.8125L5.2635 17.875H16.7365L17.1875 19.25H18.5625L18.0682 17.7677C18.788 17.5477 19.3469 16.9703 19.5078 16.2422V16.2209L20.4964 11H21.3125V9.625H20.625V5.5C20.625 3.98062 19.3944 2.75 17.875 2.75ZM2.90056 11H19.1208L18.1541 15.9631C18.0737 16.2607 17.8214 16.5 17.4666 16.5H4.598C4.2295 16.5 3.97994 16.2559 3.9105 15.9411L2.90056 11Z"/>
    </symbol>

    <symbol id="square" xmlns="http://www.w3.org/2000/svg">
        <path d="M3.4375 3.4375V8.25H4.8125V13.75H3.4375V18.5625H8.25V17.1875H13.75V18.5625H18.5625V13.75H17.1875V8.25H18.5625V3.4375H13.75V4.8125H8.25V3.4375H3.4375ZM4.8125 4.8125H6.875V6.875H4.8125V4.8125ZM15.125 4.8125H17.1875V6.875H15.125V4.8125ZM8.25 6.1875H13.75V8.25H15.8125V13.75H13.75V15.8125H8.25V13.75H6.1875V8.25H8.25V6.1875ZM4.8125 15.125H6.875V17.1875H4.8125V15.125ZM15.125 15.125H17.1875V17.1875H15.125V15.125Z"/>
    </symbol>

    <symbol id="search" fill="none" xmlns="http://www.w3.org/2000/svg">
        <path d="M137.686 160.43L205.86 228.604" stroke-width="16"/>
        <path d="M159.885 138.231L228.058 206.405" stroke-width="16"/>
        <path d="M228.058 206.405C231.002 209.349 232.656 213.341 232.656 217.504C232.656 221.667 231.002 225.66 228.058 228.604" stroke-width="16" stroke-linecap="round" stroke-linejoin="round"/>
        <path d="M205.86 228.603C208.803 231.547 212.796 233.201 216.959 233.201C221.122 233.201 225.115 231.547 228.058 228.603" stroke-width="16" stroke-linecap="round" stroke-linejoin="round"/>
        <path d="M78.9388 8.8483C88.2148 8.8483 97.3999 10.6753 105.97 14.2251C114.54 17.7749 122.327 22.9779 128.886 29.537C135.445 36.0961 140.648 43.8829 144.198 52.4528C147.747 61.0227 149.574 70.2078 149.574 79.4838C149.574 88.7598 147.747 97.945 144.197 106.515C140.648 115.085 135.445 122.872 128.886 129.431C122.327 135.99 114.54 141.193 105.97 144.743C97.3999 148.292 88.2148 150.119 78.9388 150.119C60.2051 150.119 42.2386 142.677 28.9919 129.431C15.7452 116.184 8.30322 98.2176 8.30322 79.4838C8.30322 70.2078 10.1303 61.0227 13.68 52.4528C17.2298 43.8829 22.4328 36.0961 28.9919 29.537C35.551 22.9779 43.3378 17.7749 51.9077 14.2251C60.4776 10.6753 69.6628 8.8483 78.9388 8.8483Z" stroke-width="16" stroke-linecap="round" stroke-linejoin="round"/>
        <path d="M137.686 160.43L159.885 138.231" stroke-width="16" stroke-linecap="round" stroke-linejoin="round"/>
        <path d="M148.785 149.331L128.886 129.431" stroke-width="16" stroke-linecap="round" stroke-linejoin="round"/>
        <path d="M156.634 179.378L178.833 157.179" stroke-width="16" stroke-linecap="round" stroke-linejoin="round"/>
        <path d="M78.9387 40.2419C89.3463 40.2419 99.3277 44.3763 106.687 51.7356C114.046 59.0949 118.181 69.0763 118.181 79.4839" stroke-width="16" stroke-linecap="round" stroke-linejoin="round"/>
    </symbol>

    <symbol id="price" xmlns="http://www.w3.org/2000/svg">
        <path d="M448 167.8V44.8C448.018 38.9192 446.875 33.0927 444.636 27.6548C442.397 22.217 439.106 17.2749 434.951 13.1124C430.797 8.94982 425.862 5.6487 420.428 3.39852C414.995 1.14834 409.171 -0.00658468 403.29 2.82382e-05H280.36C272.299 0.0166128 264.57 3.21097 258.85 8.89003L13.09 254.58C4.70821 262.989 0.00158691 274.377 0.00158691 286.25C0.00158691 298.123 4.70821 309.511 13.09 317.92L130.09 434.92C138.496 443.304 149.883 448.012 161.755 448.012C173.627 448.012 185.014 443.304 193.42 434.92L439.11 189.31C444.791 183.591 447.986 175.861 448 167.8V167.8ZM352 128C345.671 128 339.484 126.123 334.222 122.607C328.959 119.091 324.858 114.093 322.436 108.246C320.014 102.399 319.38 95.9645 320.615 89.7571C321.85 83.5497 324.897 77.8479 329.373 73.3726C333.848 68.8973 339.55 65.8496 345.757 64.6149C351.965 63.3802 358.399 64.0139 364.246 66.4359C370.093 68.8579 375.091 72.9594 378.607 78.2218C382.123 83.4842 384 89.671 384 96C384 104.487 380.629 112.626 374.627 118.627C368.626 124.629 360.487 128 352 128Z"/>
        <path d="M496 48C491.757 48 487.687 49.6857 484.686 52.6863C481.686 55.6869 480 59.7565 480 64V191.37L218.69 452.69C217.142 454.161 215.904 455.927 215.049 457.884C214.194 459.841 213.739 461.949 213.712 464.085C213.684 466.22 214.085 468.34 214.889 470.318C215.694 472.296 216.887 474.093 218.397 475.603C219.907 477.113 221.704 478.306 223.682 479.111C225.66 479.915 227.78 480.316 229.915 480.288C232.051 480.261 234.159 479.806 236.116 478.951C238.073 478.096 239.839 476.858 241.31 475.31L503.31 213.31C506.097 210.51 508.3 207.185 509.792 203.526C511.284 199.868 512.034 195.95 512 192V64C512 59.7565 510.314 55.6869 507.314 52.6863C504.313 49.6857 500.243 48 496 48V48Z"/>
    </symbol>

    <symbol id="timer" xmlns="http://www.w3.org/2000/svg">
        <path d="M75.9375 22.4584L82.45 15.9459L76.5584 10.0542L69.4417 17.1667C65.0667 14.5417 59.9667 13 54.5 13C38.4209 13 25.3334 26.0834 25.3334 42.1667C25.3334 58.25 38.4209 71.3334 54.5 71.3334C70.5792 71.3334 83.6667 58.25 83.6667 42.1667C83.6634 34.8585 80.9032 27.8205 75.9375 22.4584ZM54.5 63C43.0125 63 33.6667 53.6542 33.6667 42.1667C33.6667 30.6792 43.0125 21.3334 54.5 21.3334C65.9875 21.3334 75.3334 30.6792 75.3334 42.1667C75.3334 53.6542 65.9875 63 54.5 63Z"/>
        <path d="M50.3334 29.6667H58.6667V46.3333H50.3334V29.6667ZM46.1667 0.5H62.8334V8.83333H46.1667V0.5ZM4.50004 21.3333H21.1667V29.6667H4.50004V21.3333ZM4.50004 54.6667H21.1667V63H4.50004V54.6667ZM0.333374 38H16.9584V46.3333H0.333374V38Z"/>
    </symbol>

    <symbol id="facebook" xmlns="http://www.w3.org/2000/svg">
        <path d="M9.999 0C4.477 0 0 4.477 0 9.999C0 14.989 3.656 19.125 8.437 19.878V12.89H5.897V9.999H8.437V7.796C8.437 5.288 9.93 3.905 12.213 3.905C13.307 3.905 14.453 4.1 14.453 4.1V6.559H13.189C11.949 6.559 11.561 7.331 11.561 8.122V9.997H14.332L13.889 12.888H11.561V19.876C16.342 19.127 19.998 14.99 19.998 9.999C19.998 4.477 15.521 0 9.999 0Z" />
    </symbol>

    <symbol id="instagram" xmlns="http://www.w3.org/2000/svg">
        <path d="M8.997 4.372C6.443 4.372 4.374 6.442 4.374 8.995C4.374 11.549 6.443 13.619 8.997 13.619C11.549 13.619 13.62 11.549 13.62 8.995C13.62 6.442 11.549 4.372 8.997 4.372ZM8.997 11.999C7.338 11.999 5.993 10.654 5.993 8.996C5.993 7.337 7.338 5.993 8.997 5.993C10.656 5.993 11.999 7.337 11.999 8.996C11.999 10.654 10.656 11.999 8.997 11.999Z" />
        <path d="M13.804 5.28C14.3994 5.28 14.882 4.79736 14.882 4.202C14.882 3.60664 14.3994 3.124 13.804 3.124C13.2086 3.124 12.726 3.60664 12.726 4.202C12.726 4.79736 13.2086 5.28 13.804 5.28Z" />
        <path d="M17.531 3.106C17.062 1.897 16.107 0.941 14.898 0.474C14.199 0.211 13.46 0.0699999 12.712 0.0539999C11.749 0.0119999 11.444 0 9.002 0C6.56 0 6.247 -1.00583e-07 5.292 0.0539999C4.546 0.0689999 3.807 0.21 3.108 0.474C1.898 0.941 0.943 1.897 0.475 3.106C0.212 3.806 0.071 4.544 0.056 5.292C0.013 6.254 0 6.559 0 9.002C0 11.444 -7.45058e-09 11.755 0.056 12.712C0.071 13.46 0.212 14.198 0.475 14.899C0.944 16.107 1.899 17.063 3.109 17.531C3.805 17.803 4.544 17.957 5.294 17.981C6.257 18.023 6.562 18.036 9.004 18.036C11.446 18.036 11.759 18.036 12.714 17.981C13.461 17.966 14.2 17.824 14.9 17.562C16.109 17.093 17.064 16.138 17.533 14.929C17.796 14.229 17.937 13.491 17.952 12.743C17.995 11.781 18.008 11.476 18.008 9.033C18.008 6.59 18.008 6.28 17.952 5.323C17.939 4.565 17.799 3.814 17.531 3.106ZM16.313 12.638C16.306 13.214 16.202 13.785 16.002 14.326C15.697 15.113 15.076 15.735 14.29 16.037C13.755 16.236 13.191 16.34 12.62 16.348C11.67 16.392 11.402 16.403 8.966 16.403C6.528 16.403 6.279 16.403 5.311 16.348C4.742 16.341 4.176 16.236 3.642 16.037C2.853 15.736 2.228 15.114 1.923 14.326C1.727 13.792 1.621 13.227 1.612 12.657C1.569 11.707 1.559 11.439 1.559 9.003C1.559 6.566 1.559 6.317 1.612 5.348C1.619 4.772 1.723 4.202 1.923 3.661C2.228 2.872 2.853 2.251 3.642 1.949C4.176 1.751 4.742 1.646 5.311 1.638C6.262 1.595 6.529 1.583 8.966 1.583C11.403 1.583 11.653 1.583 12.62 1.638C13.191 1.645 13.755 1.75 14.29 1.949C15.076 2.252 15.697 2.874 16.002 3.661C16.198 4.195 16.304 4.76 16.313 5.33C16.356 6.281 16.367 6.548 16.367 8.985C16.367 11.421 16.367 11.683 16.324 12.639H16.313V12.638Z" />
    </symbol>

    <symbol id="twitter" xmlns="http://www.w3.org/2000/svg">
        <path d="M21.4572 2.01238C20.6876 2.35373 19.8604 2.58442 18.9924 2.68815C19.8783 2.15701 20.5589 1.31598 20.8793 0.31378C20.05 0.80564 19.1316 1.16278 18.154 1.3552C17.3712 0.52112 16.2559 0 15.0215 0C12.6514 0 10.7297 1.92147 10.7297 4.29155C10.7297 4.6279 10.7677 4.95546 10.8409 5.2696C7.27414 5.0906 4.1118 3.38203 1.99514 0.78551C1.6257 1.41935 1.41406 2.15656 1.41406 2.94309C1.41406 4.43204 2.17169 5.74563 3.32328 6.5153C2.61984 6.4929 1.95801 6.2999 1.37944 5.97846C1.37903 5.99639 1.37903 6.0143 1.37903 6.0324C1.37903 8.1118 2.85838 9.8463 4.82164 10.2406C4.46154 10.3387 4.08239 10.3912 3.69099 10.3912C3.41445 10.3912 3.1456 10.3642 2.88351 10.3142C3.42966 12.0191 5.01458 13.26 6.89259 13.2945C5.42381 14.4457 3.57332 15.1318 1.56258 15.1318C1.21617 15.1318 0.874558 15.1114 0.538818 15.0717C2.43808 16.2894 4.69396 17 7.11755 17C15.0114 17 19.3282 10.4605 19.3282 4.78918C19.3282 4.60314 19.324 4.41805 19.3157 4.23395C20.1543 3.62886 20.8819 2.87302 21.4572 2.01238Z" />
    </symbol>

    <symbol id="youtube" xmlns="http://www.w3.org/2000/svg">
        <path d="M20.5911 2.20301C20.3611 1.34501 19.6861 0.668007 18.8291 0.437007C17.2631 0.00700739 10.9981 7.5965e-06 10.9981 7.5965e-06C10.9981 7.5965e-06 4.73413 -0.00699261 3.16713 0.404007C2.32713 0.633007 1.63313 1.32501 1.40113 2.18201C0.988133 3.74801 0.984132 6.99601 0.984132 6.99601C0.984132 6.99601 0.980132 10.26 1.39013 11.81C1.62013 12.667 2.29513 13.344 3.15313 13.575C4.73513 14.005 10.9831 14.012 10.9831 14.012C10.9831 14.012 17.2481 14.019 18.8141 13.609C19.6701 13.379 20.3481 12.703 20.5811 11.846C20.9951 10.281 20.9981 7.03401 20.9981 7.03401C20.9981 7.03401 21.0181 3.76901 20.5911 2.20301ZM8.99413 10.005L8.99913 4.00501L14.2061 7.01001L8.99413 10.005Z" />
    </symbol>

</svg>